# xmcd
#
# Track frame offsets: 
#        150
#        35570
#        62047
#        84420
#        106734
#        133608
#        162403
#        185977
#        208730
#
# Disc length: 3071 seconds
#
# Revision: 0
# Processed by: cddbd v1.5.2PL0 Copyright (c) Steve Scherf et al.
# Submitted via: ExactAudioCopy v1.3
#
DISCID=7e0bfd09
DTITLE=Larry Griffith Project - Bonafide
DYEAR=2019
DGENRE=Blues
TTITLE0=Hoodoo Hannah
TTITLE1=Always Going to Be Something with You
TTITLE2=It Ain't What They Call You
TTITLE3=I Know
TTITLE4=I Do, I Did, I'm Done
TTITLE5=Slow Grind
TTITLE6=Had Enough
TTITLE7=I'm Free
TTITLE8=Mama Tried
EXTD=
EXTT0=
EXTT1=
EXTT2=
EXTT3=
EXTT4=
EXTT5=
EXTT6=
EXTT7=
EXTT8=
PLAYORDER=
